<svg xmlns="http://www.w3.org/2000/svg" viewBox="0 0 566.93 141.73"><defs><style>.a{fill:#333;}.b{fill:none;stroke:#f8d400;stroke-miterlimit:10;stroke-width:8px;}</style></defs><title>banner</title><path class="a" d="M19.88,95.62V32H9.69V21.34H38.74l22.34,58.2,22.58-58.2H113V32H102.77V95.62H113v10.62H81V95.62H91.17V32L61.88,107.1h-2.5L30.38,32V95.62h9.34v10.62h-30V95.62Z"/><path class="a" d="M180.77,95.93v10.31H160.51V99q-8.42,8.18-18.8,8.18a20.49,20.49,0,0,1-14-5.25,17.1,17.1,0,0,1-6-13.43,17.27,17.27,0,0,1,6.32-13.67,22.57,22.57,0,0,1,15.23-5.43,29.21,29.21,0,0,1,16.05,5V68.59a22,22,0,0,0-.85-7,8.91,8.91,0,0,0-4-4.39,15.38,15.38,0,0,0-8.21-2q-8.73,0-12.63,7l-11.11-2.93q7.38-13.79,25.51-13.79a33.1,33.1,0,0,1,11.51,1.8A16.88,16.88,0,0,1,166.8,52a15.24,15.24,0,0,1,3.2,6.13,47.69,47.69,0,0,1,.82,10.5V95.93ZM159.35,84.27q-7.51-5.86-15.2-5.86a11.86,11.86,0,0,0-8.06,2.81,9.17,9.17,0,0,0-3.23,7.26,9.4,9.4,0,0,0,2.84,7,10.5,10.5,0,0,0,7.72,2.81q8.42,0,15.93-7.08Z"/><path class="a" d="M186.14,57.48V47.16h7.69V38.07l11.6-10.62V47.16h10.93V57.48H205.43V86.16q0,6.9.76,8.51T210,96.29a17.24,17.24,0,0,0,6.35-1.22v10.56a26.42,26.42,0,0,1-8.91,1.59,14.51,14.51,0,0,1-8.61-2.35A10,10,0,0,1,194.69,99q-.86-3.54-.85-12.21V57.48Z"/><path class="a" d="M233.32,95.93V31.66H222.64V21.34h22.28V53.94q10.44-8.42,19.84-8.42A17.49,17.49,0,0,1,274.4,48a12.28,12.28,0,0,1,5.16,6.44q1.37,4,1.37,11.69V95.93H291v10.31H269.34V70.11a59.51,59.51,0,0,0-.43-9,6,6,0,0,0-2.35-3.72A7.29,7.29,0,0,0,262,56q-6.71,0-17.09,7.63V95.93h10.25v10.31H222.64V95.93Z"/><path class="a" d="M303.39,122.42V57.48h-9.95V47.16H315v9.28q8.67-10.19,21-10.19t20.6,8.54q8.15,8.55,8.15,22.22,0,14.34-8.85,22.64T335.74,108q-11.72,0-20.75-9v23.5h11.47v10.32H292.59V122.42Zm11.41-44.86a22.42,22.42,0,0,0,2,9.34,18,18,0,0,0,6.41,7.48,17.76,17.76,0,0,0,10.32,3,18.3,18.3,0,0,0,13.7-5.55q5.4-5.55,5.4-15.26,0-9.46-5.65-14.77a18.24,18.24,0,0,0-12.85-5.31,18.64,18.64,0,0,0-13.52,5.77Q314.81,68,314.81,77.56Z"/><path class="a" d="M384.51,95.93V57.48h-11.9V47.16h21.18V60.47a23.43,23.43,0,0,1,5.43-8.61,17.29,17.29,0,0,1,7.35-4.52,40.42,40.42,0,0,1,10.59-1.1h3.05V58H417.9q-8.85,0-13.21,1.77a11.87,11.87,0,0,0-6.47,6.44q-2.1,4.67-2.11,16.75v13H409v10.31H372.61V95.93Z"/><path class="a" d="M421.74,76.7q0-13.67,9-22.43a30.47,30.47,0,0,1,22-8.76,30.82,30.82,0,0,1,21.91,8.64q9.16,8.64,9.16,22.55t-9.12,22.58A30.72,30.72,0,0,1,452.81,108a30.32,30.32,0,0,1-22.13-8.79Q421.74,90.38,421.74,76.7Zm12.27,0q0,8.75,5.46,14.34a18.7,18.7,0,0,0,26.73-.06,19.83,19.83,0,0,0,5.4-14.28,19.62,19.62,0,0,0-5.49-14.31,17.92,17.92,0,0,0-13.31-5.62,17.57,17.57,0,0,0-13.49,5.74A20.11,20.11,0,0,0,434,76.67Z"/><path class="a" d="M514,47.16V54.3q11.17-8.06,20.39-8.06A15.78,15.78,0,0,1,543.84,49a12.5,12.5,0,0,1,4.91,6.65,43.22,43.22,0,0,1,1.16,11.51V95.93h9.95v10.31H538.32V67.61q0-6.71-2-8.76a6.67,6.67,0,0,0-4.94-2q-7.69,0-17.4,7.51V95.93h10.19v10.31H492V95.93h10.38V57.48H492V47.16Z"/><line class="b" x1="8.5" y1="127.56" x2="280.62" y2="127.56"/><line class="b" x1="338.98" y1="127.56" x2="558.43" y2="127.56"/></svg>